PathFileType	4	(X/Y/Z)	C:/Users/opensim2020/Desktop/walking_exp_matlab/subject01_walking15_straight_04.trc																																																																																																																															
DataRate	CameraRate	NumFrames	NumMarkers	Units	OrigDataRate	OrigDataStartFrame	OrigNumFrames																																																																																																																											
100	100	7	43	mm	100	2133	105																																																																																																																											
Frame#	Time	LFHD			RFHD			LBHD			RBHD			C7			T10			CLAV			STRN			RBAK			LSHO			LUPA			LELB			LFRM			LWRA			LWRB			LFIN			RSHO			RUPA			RELB			RFRM			RWRA			RWRB			RFIN			LASI			RASI			LPSI			RPSI			LTHI			LKNE			LTIB			LANK			LHEE			LTOE			RTHI			RKNE			RTIB			RANK			RHEE			RTOE			*39			*40			*41			*42		
		X1	Y1	Z1	X2	Y2	Z2	X3	Y3	Z3	X4	Y4	Z4	X5	Y5	Z5	X6	Y6	Z6	X7	Y7	Z7	X8	Y8	Z8	X9	Y9	Z9	X10	Y10	Z10	X11	Y11	Z11	X12	Y12	Z12	X13	Y13	Z13	X14	Y14	Z14	X15	Y15	Z15	X16	Y16	Z16	X17	Y17	Z17	X18	Y18	Z18	X19	Y19	Z19	X20	Y20	Z20	X21	Y21	Z21	X22	Y22	Z22	X23	Y23	Z23	X24	Y24	Z24	X25	Y25	Z25	X26	Y26	Z26	X27	Y27	Z27	X28	Y28	Z28	X29	Y29	Z29	X30	Y30	Z30	X31	Y31	Z31	X32	Y32	Z32	X33	Y33	Z33	X34	Y34	Z34	X35	Y35	Z35	X36	Y36	Z36	X37	Y37	Z37	X38	Y38	Z38	X39	Y39	Z39	X40	Y40	Z40	X41	Y41	Z41	X42	Y42	Z42	X43	Y43	Z43
																																																																																																																																		
53	0.52	-121.56403	1649.22192	946.92242	-77.80901	1657.06885	1052.35559	-234.8967	1620.05554	989.4953	-191.7261	1627.64417	1101.55847	-279.37088	1424.85449	1026.53503	-333.38531	1134.99963	1051.01819	-136.34592	1352.62622	1031.40295	-101.55106	1195.88232	1032.90186	-345.59521	1239.04346	1109.37268	-196.39507	1385.62769	869.72473	-225.36082	1204.80627	783.15381	-224.2946	1049.99731	777.5036	-126.62426	981.51434	769.74561	3.49806	947.83917	803.40735	-32.07921	905.39026	781.6922	48.64092	887.13367	774.76208	-202.0314	1393.07971	1180.22729	-310.01935	1214.12256	1278.65967	-330.79785	1093.48511	1287.31934	-349.88171	980.11847	1326.89355	-320.99512	838.90668	1321.89758	-362.4805	860.55688	1356.44019	-356.66364	774.14453	1367.99634	-173.60841	925.09973	943.27594	-156.87335	928.18878	1159.66089	-353.22864	939.16516	1015.15802	-339.16367	935.45636	1158.3125	-275.13971	597.69421	904.1712	-319.763	467.7294	924.9696	-425.74741	307.32104	927.21527	-517.31244	109.74629	989.85547	-567.03143	98.65647	1044.11707	-389.31998	35.73729	984.00726	-118.83342	605.22119	1239.72852	-45.84559	468.42667	1209.67859	-40.50517	295.2446	1228.55322	15.93725	89.79845	1192.09839	-12.59231	34.71819	1141.09778	159.49821	99.91543	1194.95593	-91.4029	1690.81311	1030.8302	-1973.08862	1023.86237	3101.91113	-2012.5238	1022.1239	3140.73047	NaN	NaN	NaN
54	0.53	-108.18697	1648.25769	947.79254	-64.0022	1655.84668	1053.06018	-221.39807	1618.76099	990.80157	-177.73787	1626.25977	1102.73987	-265.42163	1423.38538	1027.5957	-318.65039	1133.21667	1051.83044	-122.1729	1351.5155	1032.36011	-87.04022	1194.84412	1033.6991	-331.13535	1237.06982	1110.1908	-182.5136	1384.63977	870.74603	-210.88194	1203.99341	783.72565	-209.18608	1049.25549	776.94983	-109.19266	983.65369	769.48639	21.78546	954.28424	803.30035	-12.24428	910.66187	781.68939	69.1643	895.31348	774.53418	-188.01303	1391.65796	1181.32996	-297.22549	1213.18372	1279.14514	-318.68256	1092.77148	1287.93738	-339.25772	979.80011	1327.71216	-311.82471	838.34412	1323.24744	-353.32034	860.53217	1357.53418	-348.55591	773.94495	1369.04053	-159.25545	923.71222	942.72955	-140.83698	926.50861	1159.04639	-338.30927	937.74255	1016.60938	-323.21371	934.11987	1159.76392	-263.97708	597.18701	903.66278	-310.58466	467.66174	924.44354	-419.4686	309.30627	926.703	-514.95947	113.28532	989.03564	-564.74268	103.79044	1042.80029	-389.06778	35.57766	983.80682	-106.20418	602.7066	1239.76208	-30.1965	467.90945	1208.70862	-20.92382	294.81631	1227.43042	39.94405	90.4727	1190.9342	12.07839	34.98954	1140.24817	184.13159	103.12409	1191.50854	-77.83394	1689.50012	1031.65576	-1973.19287	1023.47253	3101.98022	-2012.47705	1021.98724	3140.82349	NaN	NaN	NaN
55	0.54	-94.74427	1647.08923	948.85852	-50.17391	1654.69226	1053.91516	-207.82137	1617.47534	992.25348	-163.74484	1624.99487	1104.05908	-251.45811	1421.94885	1028.83875	-303.77112	1131.37305	1052.6355	-108.03123	1350.37732	1033.40723	-72.49934	1193.82922	1034.46375	-316.61523	1235.07007	1111.08948	-168.54939	1383.66968	871.87701	-196.4747	1203.3136	784.46979	-193.76158	1048.67444	776.6319	-92.11042	985.59601	769.24597	39.6449	960.00659	803.27045	6.82559	915.46588	781.57684	88.89449	902.63312	774.69824	-173.88562	1390.16895	1182.40173	-284.23077	1212.13843	1279.73743	-306.27142	1091.9292	1288.68457	-328.10727	979.34064	1328.61646	-301.74789	837.81689	1324.6333	-343.37912	860.2395	1358.63184	-339.66595	773.57715	1370.23499	-144.34154	922.11719	942.47668	-124.67941	924.87878	1158.52783	-323.07404	936.22668	1018.07086	-307.0766	932.72034	1161.28125	-252.289	596.6145	903.11041	-300.56943	467.54895	923.82629	-412.90921	311.5625	925.67896	-512.13159	117.34738	987.64026	-562.01105	109.33013	1041.40833	-388.61548	35.69257	983.82349	-92.04379	601.1922	1239.16492	-14.54772	467.2319	1208.03564	-3.00297	294.06796	1226.349	60.33467	90.19549	1189.20178	32.62822	34.43939	1138.78711	204.97646	103.80997	1187.13013	-64.12974	1688.28894	1032.58276	-1973.23389	1023.46973	3101.94849	-2012.47864	1022.08044	3140.6875	NaN	NaN	NaN
56	0.55	-81.37204	1645.93323	949.95007	-36.40191	1653.61951	1054.83423	-194.2561	1616.21814	993.78033	-149.72215	1623.63586	1105.34424	-237.54457	1420.41272	1030.13562	-288.74368	1129.60791	1053.41162	-93.79519	1349.2832	1034.55139	-57.80542	1192.90186	1035.32214	-302.01044	1233.11462	1112.00134	-154.6534	1382.73389	873.05823	-181.98589	1202.57947	785.29034	-178.44843	1048.11316	776.43524	-75.41801	987.39618	769.07684	56.67416	965.39185	803.11584	25.22165	919.8396	781.4397	107.61745	909.66309	774.49176	-159.72243	1388.60083	1183.61975	-270.88589	1210.8678	1280.35522	-293.40491	1090.90356	1289.49915	-316.43631	978.69659	1329.51672	-291.19604	836.90631	1325.98169	-332.87759	859.88788	1359.76331	-329.88858	773.12592	1371.5509	-129.43092	920.72803	942.12579	-108.35244	923.38147	1158.03259	-307.68378	934.6676	1019.54565	-290.72501	931.41125	1162.79382	-239.92607	595.97919	902.58032	-289.61151	467.38669	923.11578	-405.32129	313.80252	924.97748	-508.92981	121.59081	986.3418	-558.81958	115.2714	1039.8407	-388.28348	35.63475	983.5307	-75.8952	600.63049	1237.65771	1.37443	466.0939	1207.11243	13.51366	292.6153	1224.63843	77.06763	89.01954	1186.85657	48.97275	33.32528	1136.83826	222.10289	102.45026	1182.24292	-50.38667	1687.35681	1033.57922	-1972.99121	1023.94263	3102.05127	-2012.51819	1022.0849	3140.69312	NaN	NaN	NaN
57	0.56	-68.06824	1645.05396	951.0282	-22.63174	1652.5376	1055.73914	-180.67517	1615.03455	995.39893	-135.65918	1622.39063	1106.70508	-223.54062	1418.94238	1031.50232	-273.48718	1127.81836	1054.17554	-79.44297	1348.28076	1035.69263	-43.06628	1192.05627	1036.15857	-287.29227	1231.17285	1112.94543	-140.59973	1381.79016	874.3775	-167.43484	1201.90808	786.22327	-163.17592	1047.74231	776.33942	-59.0294	988.96478	768.95789	73.39161	970.00336	803.09662	43.01697	923.849	781.18793	125.80124	915.76074	774.29156	-145.5087	1387.03601	1184.90369	-257.26904	1209.4624	1281.02954	-280.15497	1089.73962	1290.42944	-304.11588	977.89056	1330.57166	-279.897	835.88354	1327.40881	-321.42108	859.25165	1360.98706	-319.34268	772.32928	1372.80054	-114.15855	919.31958	941.9054	-91.82303	922.11182	1157.72607	-291.96735	933.06262	1021.03278	-274.3674	930.1366	1164.16199	-226.87378	595.29254	902.13196	-277.67352	467.03619	922.40607	-396.71188	316.02771	924.06	-505.01926	126.13367	984.93555	-555.02704	121.65495	1038.1333	-387.92267	35.55996	983.32404	-57.96256	600.74628	1235.92139	17.68531	464.88937	1206.08875	28.78172	290.78906	1222.70459	90.40716	86.57092	1184.1322	61.19347	31.56465	1134.36389	235.45692	98.71355	1177.05261	-36.71149	1686.29407	1034.6488	-1973.18433	1023.53375	3101.92041	-2012.50391	1022.01581	3140.89429	NaN	NaN	NaN
58	0.57	-54.74302	1643.86218	952.27728	-8.82846	1651.53381	1056.8811	-167.18692	1613.83765	997.12396	-121.59776	1621.22852	1108.25354	-209.49776	1417.45923	1032.97864	-258.02701	1125.95349	1054.92456	-65.07921	1347.30042	1037.00623	-28.08382	1191.19104	1037.12793	-272.4296	1229.20728	1113.83789	-126.53932	1380.84998	875.74841	-152.98943	1201.23096	787.25507	-148.2784	1047.15857	776.13007	-43.05479	990.36316	768.83234	89.52025	974.091	802.95618	60.22763	927.26099	781.03021	143.04939	921.09113	773.94751	-131.27965	1385.5321	1186.35315	-243.32965	1207.86548	1281.8031	-266.37717	1088.39697	1291.40576	-291.13696	976.86908	1331.72461	-268.17386	834.62262	1328.93262	-309.58807	858.40259	1362.28833	-307.9754	771.54205	1374.27258	-98.5638	917.82751	941.86072	-74.99737	920.95984	1157.57983	-275.91336	931.51532	1022.3103	-257.78555	928.78308	1165.18921	-213.03349	594.47272	901.68866	-264.62314	466.54959	921.57544	-387.12073	318.23792	923.01874	-500.59537	130.9502	983.07507	-550.35071	128.53754	1036.24133	-387.26807	35.55884	983.29572	-38.76974	600.84692	1233.73572	34.32124	463.39325	1204.91138	42.73043	288.54147	1220.83887	100.58077	83.23917	1180.89526	70.11253	28.79876	1131.32813	245.86685	93.43961	1172.16418	-23.14874	1685.24878	1035.66223	-1973.11462	1023.98071	3102.01392	-2012.46021	1021.99261	3140.69824	NaN	NaN	NaN
59	0.58	-41.55817	1642.81104	953.62323	4.87133	1650.48108	1057.88684	-153.71405	1612.68091	998.96112	-107.56482	1620.02502	1109.7804	-195.48157	1415.91211	1034.57422	-242.3559	1124.06335	1055.71899	-50.66214	1346.39136	1038.29675	-12.9274	1190.4823	1038.05139	-257.41724	1227.17114	1114.76721	-112.43513	1379.89868	877.19965	-138.36501	1200.62122	788.3338	-133.37495	1046.82361	776.06757	-27.57294	991.55652	768.53973	105.17297	977.44446	802.92352	76.80183	930.26447	780.77332	159.87038	925.4726	773.95032	-116.94025	1384.05151	1187.7926	-229.09247	1206.22144	1282.7229	-252.10143	1086.93909	1292.5166	-277.52594	975.66119	1332.88635	-255.16635	833.36609	1330.30676	-296.44943	857.35248	1363.54065	-295.71826	770.4295	1375.58411	-82.53647	916.35016	942.01697	-57.89629	920.06018	1157.58496	-259.59216	929.93256	1023.49896	-241.05244	927.40503	1165.94897	-198.43021	593.50275	901.38397	-250.55965	465.68851	920.72479	-376.51907	320.15247	921.96045	-495.47	136.24629	981.2467	-544.98297	135.95438	1034.26587	-386.32602	35.38987	982.96576	-19.09298	600.8374	1231.67566	50.94975	461.38309	1203.30505	55.62605	285.59213	1218.11926	108.13586	79.35482	1177.41785	75.43974	26.79598	1128.33289	253.479	86.28926	1167.5835	-9.57755	1684.04822	1036.75439	-1973.0752	1023.4447	3101.9314	-2012.58691	1022.17078	3140.65063	NaN	NaN	NaN
